<?xml version="1.0" encoding="utf-8"?><svg viewBox="0 0 16 16" xmlns="http://www.w3.org/2000/svg" xmlns:xlink="http://www.w3.org/1999/xlink"><style>:root>svg{display:none}:root>svg:target{display:block}</style><svg  viewBox="0 0 15 16" id="inst" xmlns="http://www.w3.org/2000/svg"><path d="M12.808 0H2.125C.92 0 0 .985 0 2.277v11.446C0 15.015.919 16 2.125 16h10.683c1.206 0 2.125-.985 2.125-2.277V2.277C14.933.985 14.014 0 12.808 0zM7.467 12.8c2.47 0 4.48-2.092 4.48-4.615 0-.431-.058-.923-.173-1.293h1.264v6.523c0 .308-.23.616-.574.616H2.47a.596.596 0 01-.575-.616V6.831h1.321c-.114.43-.172.861-.172 1.292-.057 2.585 1.953 4.677 4.423 4.677zm0-1.846c-1.609 0-2.872-1.354-2.872-3.016 0-1.661 1.263-3.015 2.872-3.015 1.608 0 2.872 1.354 2.872 3.015 0 1.724-1.264 3.016-2.872 3.016zm5.513-6.585c0 .37-.287.677-.631.677H10.74c-.345 0-.632-.308-.632-.677V2.708c0-.37.287-.677.632-.677h1.608c.344 0 .631.307.631.677v1.661z" /></svg><svg  viewBox="0 0 16 10" id="vk" xmlns="http://www.w3.org/2000/svg"><path d="M15.851 8.34c0-.064-.063-.064-.063-.128-.255-.51-.828-1.146-1.592-1.846-.382-.318-.573-.573-.7-.7-.191-.255-.191-.446-.127-.7.063-.191.318-.51.764-1.083.254-.318.382-.509.573-.7.954-1.273 1.4-2.1 1.273-2.483l-.064-.063c-.064-.064-.127-.128-.255-.128-.127-.063-.318-.063-.509 0h-2.865l-.063.064c-.064.064-.064.064-.064.127-.255.7-.573 1.273-.891 1.91-.191.318-.382.637-.573.891-.191.255-.318.446-.446.573-.127.128-.254.191-.318.319-.064.063-.191.127-.191.063-.064 0-.127 0-.127-.063l-.191-.191c-.064-.064-.064-.191-.128-.319v-.318-.382-.382-.7-.573-.446V.7c0-.063-.063-.19-.063-.254L9.04.255C8.976.19 8.849.19 8.785.127A5.71 5.71 0 007.64 0C6.621 0 5.92.064 5.666.191c-.128.064-.255.127-.319.255-.127.127-.127.19-.063.19.318.064.573.192.7.383l.064.127c.063.064.063.19.127.382.064.19.064.382.064.636v1.019c0 .318-.064.51-.064.7 0 .191-.064.319-.127.382-.064.128-.064.191-.128.191 0 0 0 .064-.063.064-.064 0-.128.064-.255.064a.483.483 0 01-.255-.128.767.767 0 01-.318-.318 2.222 2.222 0 01-.382-.573c-.127-.255-.318-.51-.445-.891l-.128-.255a9.01 9.01 0 01-.318-.7c-.127-.318-.255-.573-.382-.891a.879.879 0 00-.191-.255h-.064S3.056.509 2.992.509s-.127-.063-.19-.063H.508C.255.446.127.509.064.573L0 .637v.127c0 .064 0 .127.064.255.318.763.7 1.527 1.082 2.291.382.7.764 1.337 1.018 1.783.319.445.573.891.892 1.273.318.382.509.637.573.764l.254.255.191.19c.128.128.319.319.573.51.255.19.573.382.891.573.319.19.7.318 1.083.445.445.128.827.191 1.21.128h.954a.578.578 0 00.446-.191l.063-.064c0-.064.064-.064.064-.127v-.255c0-.255 0-.445.064-.636.063-.191.063-.319.127-.446a.879.879 0 01.191-.255l.127-.127h.064c.127-.064.318 0 .446.127.19.128.382.319.509.51.127.19.318.381.573.636.255.255.446.446.573.51l.19.127c.128.063.255.127.446.19.191.064.319.064.446.064l2.164-.063a1.2 1.2 0 00.51-.128c.127-.063.19-.127.19-.254v-.255c-.127-.127-.127-.19-.127-.255z" /></svg><svg  viewBox="0 0 16 16" id="whatsapp" xmlns="http://www.w3.org/2000/svg"><path d="M13.659 2.333A7.945 7.945 0 008.027 0C3.624 0 .056 3.556.056 7.944c0 1.39.39 2.778 1.059 3.945L0 16l4.237-1.111a8.151 8.151 0 003.79.944c4.405 0 7.973-3.555 7.973-7.944-.056-2.056-.836-4.056-2.341-5.556zm-1.784 8.445c-.168.444-.948.889-1.338.944-.335.056-.78.056-1.227-.055-.279-.111-.669-.223-1.115-.445-2.007-.833-3.29-2.833-3.4-3-.112-.11-.837-1.055-.837-2.055 0-1 .502-1.445.67-1.667.166-.222.39-.222.557-.222h.39c.111 0 .279-.056.446.333.167.389.557 1.389.613 1.445a.353.353 0 010 .333 1.162 1.162 0 01-.223.333c-.111.111-.223.278-.279.334-.111.11-.223.222-.111.388.111.223.502.834 1.115 1.39.78.666 1.394.888 1.617 1 .223.11.334.055.446-.056.111-.111.501-.556.613-.778.111-.222.279-.167.446-.111.167.055 1.17.555 1.338.667.223.11.334.166.39.222.056.166.056.555-.111 1z" /></svg></svg>
